/* XPM */
static char *rcp0921143686892[] = {
/* columns rows colors chars-per-pixel */
"30 30 119 2 ",
"   c #66798F",
".  c #6C7E93",
"X  c #6E8196",
"o  c #76879B",
"O  c #75889C",
"+  c #76889C",
"@  c #78889C",
"#  c #7B8B9E",
"$  c #7B8B9F",
"%  c #7C8C9F",
"&  c #788BA1",
"*  c #7A8DA0",
"=  c #7B8DA1",
"-  c #7D8EA0",
";  c #7D8EA1",
":  c #7F90A3",
">  c #8190A3",
",  c #8092A6",
"<  c #8092A7",
"1  c #8696A8",
"2  c #8497AB",
"3  c #8698AB",
"4  c #8799AE",
"5  c #8B9AAB",
"6  c #8F9DAE",
"7  c #919FAF",
"8  c #8B9DB2",
"9  c #8EA0B4",
"0  c #90A1B6",
"q  c #98A6B4",
"w  c #96A8BC",
"e  c #97A9BD",
"r  c #A4B0BD",
"t  c #A7B3BF",
"y  c #9EAFC3",
"u  c #9FB0C4",
"i  c #A1B3C6",
"p  c #A7B8CB",
"a  c #A9BACD",
"s  c #B5BFC9",
"d  c #ADBED1",
"f  c #8BB7F0",
"g  c #8DB8F0",
"h  c #8FB9F1",
"j  c #90BAF1",
"k  c #92BCF1",
"l  c #94BDF1",
"z  c #96BEF2",
"x  c #B8C1CC",
"c  c #AFC0D3",
"v  c #B0C1D4",
"b  c #BFC8D0",
"n  c #9DC2F2",
"m  c #9EC2F2",
"M  c #9FC4F3",
"N  c #A0C4F2",
"B  c #A1C4F3",
"V  c #A1C5F3",
"C  c #A2C5F3",
"Z  c #A4C6F3",
"A  c #A5C7F3",
"S  c #A8C9F4",
"D  c #ACCBF4",
"F  c #B1CFF5",
"G  c #B3D0F5",
"H  c #B3D0F6",
"J  c #B6D2F5",
"K  c #BAD4F6",
"L  c #BDD6F7",
"P  c #C9D0D8",
"I  c #D0D6DD",
"U  c #DADFE4",
"Y  c #C3DAF7",
"T  c #C5DBF7",
"R  c #C8DDF8",
"E  c #CBDFF8",
"W  c #DBE0E5",
"Q  c #CEE0F8",
"!  c #D3E4F9",
"~  c #D6E6FA",
"^  c #D9E7FA",
"/  c #DBE8FA",
"(  c #DDEAFB",
")  c #DFEBFA",
"_  c #E2E5EA",
"`  c #E9ECEF",
"'  c #E1EDFB",
"]  c #E6EFFB",
"[  c #E8F0FB",
"{  c #E9F1FC",
"}  c #EBF2FC",
"|  c #ECF3FC",
" . c #EEF4FC",
".. c #F2F4F5",
"X. c #F3F4F6",
"o. c #F0F5FD",
"O. c #F0F6FD",
"+. c #F1F6FD",
"@. c #F3F7FD",
"#. c #F4F8FD",
"$. c #F6F9FD",
"%. c #F7FAFD",
"&. c #F8F9FA",
"*. c #FBFBFC",
"=. c #F8FAFE",
"-. c #F8FBFE",
";. c #F9FBFE",
":. c #FAFBFE",
">. c #FBFCFC",
",. c #FAFCFE",
"<. c #FBFCFE",
"1. c gray99",
"2. c #FDFDFD",
"3. c #FCFDFE",
"4. c #FDFDFE",
"5. c #FDFEFE",
"6. c #FEFEFE",
"7. c #FEFEFF",
"8. c white",
/* pixels */
"8.8.8.8.8.8.8.8.8.8.8.8.8.8.8.` 8.8.8.8.8.8.8.8.8.8.8.8.8.8.",
"8.8.8.8.8.8.8.8.8.8.8.8.8.8.U . *.8.8.8.8.8.8.8.8.8.8.8.8.8.",
"8.8.8.8.8.8.8.8.8.8.8.8.8.P 1   *.8.8.8.8.8.8.8.8.8.8.8.8.8.",
"8.8.8.8.8.8.8.8.8.8.8.8.s * a   *.8.8.8.R l ' 8.8.8.8.8.8.8.",
"8.8.8.8.8.8.8.8.8.8.8.r , d v   *.8.8.8.8.o.J j ) 8.8.8.8.8.",
"8.8.8.8.8.8.8.8.8.>.7 4 c v v   *.8.8.8.8.8.8.*.l ~ 8.8.8.8.",
"8.8.8.8.8.8.8.8.&.: 9 v v v v   *.8.8.>.8.8.8.8.8.Z ~ 8.8.8.",
"8.8.8.8.8.8.8.X.# w v v v v v   *.8.8.L B | 8.8.8.8.G ' 8.8.",
"8.8.` ` ` ` I # y v v v v v v   *.8.8.8.o.S T 8.8.8.8.k 8.8.",
"` % 1 3 3 3 X 8 v v v v v v v   *.8.8.8.8.8.G T 8.8.8.~ Q 8.",
"; u v v v v & 8 v v v v v v v   *.8.8.8.8.8.8.D | 8.8.8.l >.",
"  p v v v v & 8 v v v v v v v   8.8.B ' 8.8.8.#.m 8.8.8.! R ",
"  p v v v v & 8 v v v v v v v   *.8.o.l ! 8.8.8.L o.8.8.[ G ",
"  p v v v v & 8 v v v v v v v   *.8.8.*.h 8.8.8.^ ) 8.8.#.B ",
"  p v v v v & 8 v v v v v v v   *.8.8.8.m { 8.8.{ T 8.8.8.h ",
"  p v v v v & 8 v v v v v v v   *.8.8.8.Z [ 8.8.{ Y 8.8.8.h ",
"  p v v v v & 8 v v v v v v v   *.8.8.8.f >.8.8.^ / 8.8.*.M ",
"  p v v v v & 8 v v v v v v v   *.8.*.B T 8.8.8.G | 8.8.{ F ",
"  p v v v v & 8 v v v v v v v   8.8.l ! 8.8.8.#.l 8.8.8.~ T ",
"+ i v v v v & 8 v v v v v v v   *.8.8.8.8.8.8.S ] 8.8.8.l #.",
"_ 6 3 3 3 3 X 8 v v v v v v v   *.8.8.8.8.8.G G 8.8.8.) Y 8.",
"8.&.W W W W b ; u v v v v v v   *.8.8.8. .S T 8.8.8.8.l 8.8.",
"8.8.8.8.8.8.8.` # w v v v v v   *.8.8.K Z { 8.8.8.8.Y ~ 8.8.",
"8.8.8.8.8.8.8.8.X.> 0 v v v v   *.8.8.8.8.8.8.8.8.G T 8.8.8.",
"8.8.8.8.8.8.8.8.8.&.5 4 v v v   *.8.8.8.8.8.8.8.S T 8.8.8.8.",
"8.8.8.8.8.8.8.8.8.8.>.q , c v   *.8.8.8.8.>.Q h Q 8.8.8.8.8.",
"8.8.8.8.8.8.8.8.8.8.8.8.r * d   *.8.8.8.~ h ! 8.8.8.8.8.8.8.",
"8.8.8.8.8.8.8.8.8.8.8.8.8.x +   *.8.8.8.*.8.8.8.8.8.8.8.8.8.",
"8.8.8.8.8.8.8.8.8.8.8.8.8.8.P o *.8.8.8.8.8.8.8.8.8.8.8.8.8.",
"8.8.8.8.8.8.8.8.8.8.8.8.8.8.8.W *.8.8.8.8.8.8.8.8.8.8.8.8.8."
};
