/* XPM */
static char *freeimage[] = {
/* width height num_colors chars_per_pixel */
"48 48 155 2",
/* colors */
"   c None",
" . c #fefefe",
" X c #dce1e6",
" o c #c4cbd4",
" O c #c9d0d7",
" + c #66798f",
" @ c #c3cbd4",
" # c #b3bdc7",
" $ c #a8b3bf",
" % c #889aae",
" & c #f0f6fd",
" * c #fefeff",
" = c #fdfdfd",
" - c #8c9aaa",
" ; c #687b90",
" : c #94a6ba",
" > c #b0c1d4",
" , c #fcfdff",
" < c #a0c4f3",
" 1 c #a1c5f3",
" 2 c #ccdff8",
" 3 c #f6f9fe",
" 4 c #f9f9fa",
" 5 c #78889c",
" 6 c #6a7d93",
" 7 c #9caec2",
" 8 c #f5f9fe",
" 9 c #d0e2f9",
" 0 c #a4c6f3",
" q c #cbdef8",
" w c #fcfdfe",
" e c #f2f3f5",
" r c #6c7e94",
" t c #6d8196",
" y c #a0b2c6",
" u c #dbe8fa",
" i c #a1c4f3",
" p c #eaf2fc",
" a c #e9ecef",
" s c #6a7c92",
" d c #72859b",
" f c #a6b8cc",
" g c #bfd7f6",
" h c #d8e7f9",
" j c #d5dae0",
" k c #677a8f",
" l c #788aa0",
" z c #abbccf",
" x c #d5e5fa",
" c c #cde0f8",
" v c #c1c9d1",
" b c #7c8ea4",
" n c #adbed2",
" m c #f6f9fd",
" M c #f9fbfe",
" N c #e1ecfb",
" B c #d6e6fa",
" V c #aeb8c4",
" C c #8497ab",
" Z c #afc0d4",
" A c #c4dbf7",
" S c #bcd6f6",
" D c #f7fafe",
" F c #8bb7f0",
" G c #e6effb",
" H c #96a3b3",
" J c #667a8f",
" K c #8e9fb4",
" L c #fdfeff",
" P c #e7f0fc",
" I c #adccf4",
" U c #c9def8",
" Y c #a3c6f3",
" T c #f2f4f5",
" R c #b6bfc9",
" E c #92a4b8",
" W c #feffff",
" Q c #c6dbf7",
" ! c #a8c9f3",
" ~ c #c1d9f6",
" ^ c #75889c",
" / c #ecf3fc",
" ( c #f4f8fd",
" ) c #fbfcfc",
" _ c #7f92a7",
" ` c #abbcd0",
" ' c #697c91",
" ] c #deebfb",
" [ c #b1cff4",
" { c #9fb0c4",
" } c #ddeafb",
" | c #fafcfe",
".  c #e4e7eb",
".. c #a1b2c7",
".X c #eef4fd",
".o c #e9f1fc",
".O c #b1cff5",
".+ c #cbdff8",
".@ c #e4eefc",
".# c #b3cff5",
".$ c #cee1f8",
".% c #bbd5f6",
".& c #c3daf7",
".* c #e9f2fc",
".= c #dce9fb",
".- c #a4c7f3",
".; c #b7d2f5",
".: c #cee0f8",
".> c #eff5fd",
"., c #f8fbfe",
".< c #fafbfe",
".1 c #f3f7fe",
".2 c #f4f8fe",
".3 c #aacaf3",
".4 c #d7e6f9",
".5 c #aeccf4",
".6 c #fbfdfe",
".7 c #acbed1",
".8 c #d9e8fa",
".9 c #e3edfb",
".0 c #73879c",
".q c #d0e1f8",
".w c #ccd2da",
".e c #7d8da0",
".r c #8799af",
".t c #b0c0d3",
".y c #d2e3f9",
".u c #a7c8f3",
".i c #aab4c1",
".p c #7d90a5",
".a c #c3cbd3",
".s c #75889e",
".d c #aabace",
".f c #708399",
".g c #a5b6ca",
".h c #e6e9ed",
".j c #687b91",
".k c #f3f4f6",
".l c #6e8095",
".z c #697b92",
".x c #97a9bd",
".c c #dbe9fa",
".v c #f8f9fa",
".b c #74869a",
".n c #91a3b7",
".m c #fcfdfd",
".M c #8796a7",
".N c #8698ac",
".B c #9ba7b6",
".V c #7e91a6",
".C c #adbfd1",
".Z c #7b8da2",
".A c #c6cdd6",
".S c #dfe3e8",
".D c #677a90",
/* pixels */
"                                                                                                ",
"                                                   .                                            ",
"                                                 X o                                            ",
"                                               O + @                                            ",
"                                             # + + @                                            ",
"                                           $ + % + @             & *                            ",
"                                       = - ; : > + @           , < 1 2 3                        ",
"                                     4 5 6 7 > > + @             8 9 0 < q w                    ",
"                                   e r t y > > > + @                 * u i i p                  ",
"                                 a s d f > > > > + @                     , g < h                ",
"                               j k l z > > > > > + @                         x < c              ",
"                             v + b n > > > > > > + @         m M               N < B            ",
"                           V + C Z > > > > > > > + @         A < S D             u F G          ",
"                       . H J K > > > > > > > > > + @         L P I < B             U Y w        ",
"       T O R R R R R R 5 k E > > > > > > > > > > + @             W u < Q           L ! ~        ",
"     j + + + + + + + + + ^ > > > > > > > > > > > + @                 & 1 U           / F (      ",
"   ) + _ ` > > > > > > ' ^ > > > > > > > > > > > + @                   & < ]           [ ~      ",
"   a + { > > > > > > > ' ^ > > > > > > > > > > > + @                     } i |         P < |    ",
"  .  +.. > > > > > > > ' ^ > > > > > > > > > > > + @    .X I.o            .O.+         * <.@    ",
"  .  +.. > > > > > > > ' ^ > > > > > > > > > > > + @     (.# F.$           P < ,        .%.&    ",
"  .  +.. > > > > > > > ' ^ > > > > > > > > > > > + @         q F.@         L <.*        .= Y    ",
"  .  +.. > > > > > > > ' ^ > > > > > > > > > > > + @          .#.- *        .;.:        .> F w  ",
"  .  +.. > > > > > > > ' ^ > > > > > > > > > > > + @           / F &        .$.;         8 F.,  ",
"  .  +.. > > > > > > > ' ^ > > > > > > > > > > > + @          .< F N         h !        .< F.1  ",
"  .  +.. > > > > > > > ' ^ > > > > > > > > > > > + @          .< F N         B !         | F.1  ",
"  .  +.. > > > > > > > ' ^ > > > > > > > > > > > + @           / F &         U.;        .2 F.,  ",
"  .  +.. > > > > > > > ' ^ > > > > > > > > > > > + @          .#.- *        .3.:        .> F w  ",
"  .  +.. > > > > > > > ' ^ > > > > > > > > > > > + @         q F.@         | F.*         } Y    ",
"  .  +.. > > > > > > > ' ^ > > > > > > > > > > > + @     (.# F.$          .4 < ,        .; Q    ",
"  .  +.. > > > > > > > ' ^ > > > > > > > > > > > + @    .X.5 /           w Y.:         L <.@    ",
"   a + { > > > > > > > ' ^ > > > > > > > > > > > + @                     Q Y.6        .@ < |    ",
"   ) + _.7 > > > > > > ' ^ > > > > > > > > > > > + @                  .8 F.9          .3 Q      ",
"     j + + + + + + + + +.0 > > > > > > > > > > > + @                 B <.q          .o F (      ",
"       T.w @ @ @ @ @ @.e +.r.t > > > > > > > > > + @            .,.% <.y           L.u ~        ",
"                        .i +.p n > > > > > > > > + @        .> A <.u p             U Y w        ",
"                          .a +.s.d > > > > > > > + @        .y !.8 L             u F G          ",
"                             j +.f.g > > > > > > + @         *                 N < B            ",
"                              .h.j r { > > > > > + @                         x < c              ",
"                                .k.l.z.x > > > > + @                     , g <.c                ",
"                                  .v.b k.n > > > + @                 * u i 0.>                  ",
"                                    .m.M +.N.t > + @             8 9 0 <.y L                    ",
"                                       ..B +.V.C + @           , < 0.y |                        ",
"                                           $ +.Z + @             & W                            ",
"                                            .A + + @                                            ",
"                                              .S.D @                                            ",
"                                                 a.A                                            ",
"                                                   .                                            ",
"                                                                                                "
};
