/* XPM */
static char *main_icon[] = {
/* width height num_colors chars_per_pixel */
"48 48 203 2",
/* colors */
"  c None",
" . c #f4f5f7",
" X c #b9c2cc",
" o c #a4afbc",
" O c #fefefe",
" + c #a8b3be",
" @ c #66798f",
" # c #a3afbc",
" $ c #fafbfb",
" % c #98a5b3",
" & c #f7f8f9",
" * c #909eae",
" = c #889aae",
" - c #d1e2f9",
" ; c #f3f7fc",
" : c #edeff2",
" > c #7f8fa1",
" , c #687b90",
" < c #94a6ba",
" 1 c #b0c1d4",
" 2 c #ecf2fd",
" 3 c #8bb7f0",
" 4 c #8cb8f0",
" 5 c #aacaf4",
" 6 c #dce9fa",
" 7 c #e2e5e9",
" 8 c #748599",
" 9 c #6a7d93",
" 0 c #9caec2",
" q c #fbfdff",
" w c #d9e7fa",
" e c #aecdf5",
" r c #8eb8f0",
" t c #a9c9f3",
" y c #e9f1fb",
" u c #d4d9df",
" i c #6c7e94",
" p c #6d8196",
" a c #a0b2c6",
" s c #f3f6fc",
" d c #b7d1f5",
" f c #8cb7f0",
" g c #c9def8",
" h c #c8cfd7",
" j c #6a7c92",
" k c #72859b",
" l c #a6b8cc",
" z c #eaf1fc",
" x c #a0c4f2",
" c c #b5d1f4",
" v c #b2bcc7",
" b c #677a8f",
" n c #788aa0",
" m c #abbccf",
" M c #fafbfe",
" N c #b2cff5",
" B c #abcbf4",
" V c #fcfdff",
" C c #fdfdfd",
" Z c #a1adba",
" A c #7c8ea4",
" S c #adbed2",
" D c #dce9f9",
" F c #e1ecfb",
" G c #bed7f7",
" H c #b3d0f5",
" J c #fefeff",
" K c #f9fafb",
" L c #94a2b1",
" P c #8497ab",
" I c #afc0d4",
" U c #a4c7f3",
" Y c #9ec3f2",
" T c #ddeafa",
" R c #b7d2f6",
" E c #c3daf6",
" W c #f2f3f5",
" Q c #8594a6",
" ! c #667a8f",
" ~ c #8e9fb4",
" ^ c #f0f5fd",
" / c #c5dbf7",
" ( c #93bcf1",
" ) c #fdfeff",
" _ c #a8c9f3",
" ` c #8db8f0",
" ' c #d4dae0",
" ] c #99a6b4",
" [ c #92a4b8",
" { c #f6fafe",
" } c #a6c7f2",
" | c #f8fbfe",
".  c #90baf0",
".. c #a2c5f2",
".X c #b2bbc6",
".o c #75889c",
".O c #ccdff8",
".+ c #d7e6f9",
".@ c #e8ebee",
".# c #7f92a7",
".$ c #abbcd0",
".% c #697c91",
".& c #d2e3f9",
".* c #bbd5f6",
".= c #96bef0",
".- c #9fb0c4",
".; c #fafcfe",
".: c #bad4f6",
".> c #e4eefb",
"., c #e6effb",
".< c #c2c9d2",
".1 c #a1b2c7",
".2 c #cee1f9",
".3 c #c7dcf8",
".4 c #f9fbfd",
".5 c #96bef1",
".6 c #a9caf3",
".7 c #f2f7fc",
".8 c #c2d9f7",
".9 c #97bef1",
".0 c #acccf4",
".q c #c5dbf8",
".w c #ecf3fd",
".e c #9dc2f2",
".r c #a3c6f3",
".t c #a9c9f4",
".y c #c1d9f7",
".u c #c8ddf7",
".i c #b9d3f6",
".p c #8eb9f0",
".a c #f4f8fe",
".s c #9ac0f1",
".d c #accbf4",
".f c #cfe1f9",
".g c #eaf2fb",
".h c #cbdef7",
".j c #e0ecfa",
".k c #e3edfb",
".l c #d6e5fa",
".z c #e3eefa",
".x c #d8e7fa",
".c c #e0ecfb",
".v c #91bbf0",
".b c #e4eefc",
".n c #b4d0f4",
".m c #a5c7f2",
".M c #94bcf1",
".N c #ccdff7",
".B c #ebf3fb",
".V c #e8f1fc",
".C c #acbed1",
".Z c #b6d2f6",
".A c #c0d8f6",
".S c #73879c",
".D c #aecbf3",
".F c #c8dcf7",
".G c #aab4c1",
".H c #77889c",
".J c #8799af",
".K c #b0c0d3",
".L c #dfebfa",
".P c #afcdf5",
".I c #eef5fc",
".U c #8fb9f0",
".Y c #f8f9fa",
".T c #929faf",
".R c #7d90a5",
".E c #d0e2f8",
".W c #c9ddf8",
".Q c #a3aebb",
".! c #75889e",
".~ c #aabace",
".^ c #b0cef4",
"./ c #f0f6fd",
".( c #708399",
".) c #a5b6ca",
"._ c #fbfcfe",
".` c #c4cbd4",
".' c #687b91",
".] c #d5dae0",
".[ c #6e8095",
".{ c #697b92",
".} c #97a9bd",
".| c #b8d3f5",
"X  c #dfe3e8",
"X. c #728498",
"XX c #91a3b7",
"Xo c #cfe1f8",
"XO c #ebeef1",
"X+ c #7c8c9f",
"X@ c #8698ac",
"X# c #eff5fd",
"X$ c #f4f6f7",
"X% c #8897a8",
"X& c #7e91a6",
"X* c #adbfd1",
"X= c #7b8da2",
"X- c #f5f9fe",
"X; c #fdfdfe",
"X: c #a6b1be",
"X> c #bcc5ce",
"X, c #677a90",
"X< c #c7ced6",
/* pixels */
"                                                                                                ",
"                                                   .                                            ",
"                                                 X o                                            ",
"                                             O + @ #                                            ",
"                                           $ % @ @ #                                            ",
"                                         & * @ = @ #             - ;                            ",
"                                       : > , < 1 @ #           2 3 4 5 6                        ",
"                                     7 8 9 0 1 1 @ #           q w e r 3 t y                    ",
"                                   u i p a 1 1 1 @ #                 s d f f g                  ",
"                                 h j k l 1 1 1 1 @ #                     z x 3 c q              ",
"                               v b n m 1 1 1 1 1 @ #                       M N 3 B V            ",
"                           C Z @ A S 1 1 1 1 1 1 @ #         D F               G 3 H J          ",
"                         K L @ P I 1 1 1 1 1 1 1 @ #         U 3 Y T             R 3 E          ",
"                       W Q ! ~ 1 1 1 1 1 1 1 1 1 @ #         ^ / ( 3 H q         ) _ ` y        ",
"       ' + ] ] ] ] ] ] 8 b [ 1 1 1 1 1 1 1 1 1 1 @ #             { d 3 } |         ^. .. )      ",
"    .X @ @ @ @ @ @ @ @ @.o 1 1 1 1 1 1 1 1 1 1 1 @ #                 - 4 _ V        .O 3.+      ",
"  .@ @.#.$ 1 1 1 1 1 1.%.o 1 1 1 1 1 1 1 1 1 1 1 @ #                  .& 3.*         V.=..      ",
"   h @.- 1 1 1 1 1 1 1.%.o 1 1 1 1 1 1 1 1 1 1 1 @ #    .; q            .: f.>         / 3.,    ",
"  .< @.1 1 1 1 1 1 1 1.%.o 1 1 1 1 1 1 1 1 1 1 1 @ #    .2 (.3 )        .4.5.6        .7 3.8    ",
"  .< @.1 1 1 1 1 1 1 1.%.o 1 1 1 1 1 1 1 1 1 1 1 @ #    .+.9 3.0 )        .q 3.w        .e.r    ",
"  .< @.1 1 1 1 1 1 1 1.%.o 1 1 1 1 1 1 1 1 1 1 1 @ #       M.t 3.y         ^ 3.u        .i `.4  ",
"  .< @.1 1 1 1 1 1 1 1.%.o 1 1 1 1 1 1 1 1 1 1 1 @ #        .;.9.p.a        .s.d        .f 3.g  ",
"  .< @.1 1 1 1 1 1 1 1.%.o 1 1 1 1 1 1 1 1 1 1 1 @ #          .h 3 -        .0.s         w 3.j  ",
"  .< @.1 1 1 1 1 1 1 1.%.o 1 1 1 1 1 1 1 1 1 1 1 @ #          .k 3 G         c.         .k 3.l  ",
"  .< @.1 1 1 1 1 1 1 1.%.o 1 1 1 1 1 1 1 1 1 1 1 @ #          .k 3 G         H.         .z 3.l  ",
"  .< @.1 1 1 1 1 1 1 1.%.o 1 1 1 1 1 1 1 1 1 1 1 @ #          .h 3 -         _.s        .x 3.c  ",
"  .< @.1 1 1 1 1 1 1 1.%.o 1 1 1 1 1 1 1 1 1 1 1 @ #        .;.9.p.a       ).v.d        .f 3.g  ",
"  .< @.1 1 1 1 1 1 1 1.%.o 1 1 1 1 1 1 1 1 1 1 1 @ #       M.t 3.y        .b 3.u        .: `.4  ",
"  .< @.1 1 1 1 1 1 1 1.%.o 1 1 1 1 1 1 1 1 1 1 1 @ #    .+.9 3.0 )        .n 3 2        .s.m    ",
"  .< @.1 1 1 1 1 1 1 1.%.o 1 1 1 1 1 1 1 1 1 1 1 @ #    .2.M.N J        .B `.d         ^ 3.8    ",
"   h @.- 1 1 1 1 1 1 1.%.o 1 1 1 1 1 1 1 1 1 1 1 @ #    .; q           ).m `.V        .y 3.,    ",
"  .@ @.#.C 1 1 1 1 1 1.%.o 1 1 1 1 1 1 1 1 1 1 1 @ #                  .Z 3.A         |.v }      ",
"    .X @ @ @ @ @ @ @ @ @.S 1 1 1 1 1 1 1 1 1 1 1 @ #               M H 3.D )        .F 3.+      ",
"       '.G # # # # # #.H @.J.K 1 1 1 1 1 1 1 1 1 @ #            .L.e 3.P.;        .I.U.. )      ",
"                      .Y.T @.R S 1 1 1 1 1 1 1 1 @ #        .E U 3.U.W           ) _ ` y        ",
"                         C.Q @.!.~ 1 1 1 1 1 1 1 @ #        .^. .Z./             R 3 E          ",
"                           J v @.(.) 1 1 1 1 1 1 @ #        .7._               G 3 H J          ",
"                              .`.' i.- 1 1 1 1 1 @ #                       M N 3 B V            ",
"                                .].[.{.} 1 1 1 1 @ #                     z x 3.| q              ",
"                                  X X. bXX 1 1 1 @ #                 s d f rXo                  ",
"                                    XOX+ @X@.K 1 @ #           q w e r 3.^X#                    ",
"                                      X$X% @X&X* @ #           2 3 r.^.z                        ",
"                                         & * @X= @ #            .&X-                            ",
"                                          X;X: @ @ #                                            ",
"                                              X>X, #                                            ",
"                                                X<X:                                            ",
"                                                   .                                            ",
"                                                                                                "
};
